<?xml version="1.0" encoding="utf-8"?>
<svg viewBox="0 0 500 500" xmlns="http://www.w3.org/2000/svg">
  <rect style="fill-rule: nonzero; fill: rgb(60,89,251);" transform="matrix(0.397147, 0.917755, -0.917755, 0.397147, 362.509216, -67.146439)" x="57.655" y="39.859" width="378" height="378" rx="25" ry="25"/>
  <path d="M 173.276 156.465 L 178.676 156.465 C 179.163 156.465 179.666 156.568 180.186 156.775 C 180.713 156.982 181.219 157.252 181.706 157.585 L 181.676 157.585 C 182.163 157.925 182.536 158.385 182.796 158.965 C 183.056 159.538 183.186 160.198 183.186 160.945 L 183.186 164.785 C 183.186 166.298 182.683 167.428 181.676 168.175 C 181.189 168.528 180.689 168.802 180.176 168.995 C 179.663 169.195 179.163 169.295 178.676 169.295 L 172.576 169.295 C 172.089 169.295 171.589 169.195 171.076 168.995 C 170.563 168.802 170.063 168.528 169.576 168.175 C 168.569 167.428 168.066 166.298 168.066 164.785 L 168.066 162.935 C 168.066 162.062 168.616 161.625 169.716 161.625 C 170.836 161.625 171.396 162.062 171.396 162.935 L 171.396 164.565 C 171.396 165.045 171.536 165.482 171.816 165.875 C 172.096 166.268 172.583 166.465 173.276 166.465 L 177.976 166.465 C 178.669 166.465 179.156 166.268 179.436 165.875 C 179.716 165.482 179.856 165.045 179.856 164.565 L 179.856 161.175 C 179.856 160.708 179.716 160.275 179.436 159.875 C 179.156 159.468 178.669 159.265 177.976 159.265 L 172.576 159.265 C 171.603 159.265 170.603 158.912 169.576 158.205 C 168.569 157.418 168.066 156.288 168.066 154.815 L 168.066 151.485 C 168.066 150.738 168.196 150.082 168.456 149.515 C 168.716 148.942 169.089 148.478 169.576 148.125 L 169.546 148.125 C 170.033 147.805 170.539 147.545 171.066 147.345 C 171.586 147.138 172.089 147.035 172.576 147.035 L 178.676 147.035 C 179.163 147.035 179.666 147.138 180.186 147.345 C 180.713 147.545 181.219 147.805 181.706 148.125 L 181.676 148.125 C 182.163 148.478 182.536 148.942 182.796 149.515 C 183.056 150.082 183.186 150.738 183.186 151.485 L 183.186 153.135 C 183.186 154.015 182.626 154.455 181.506 154.455 C 180.406 154.455 179.856 154.015 179.856 153.135 L 179.856 151.735 C 179.856 151.268 179.716 150.838 179.436 150.445 C 179.156 150.058 178.669 149.865 177.976 149.865 L 173.276 149.865 C 172.583 149.865 172.096 150.058 171.816 150.445 C 171.536 150.838 171.396 151.268 171.396 151.735 L 171.396 154.595 C 171.396 155.082 171.536 155.515 171.816 155.895 C 172.096 156.275 172.583 156.465 173.276 156.465 ZM 192.061 147.035 L 198.161 147.035 C 198.648 147.035 199.155 147.138 199.681 147.345 C 200.201 147.545 200.705 147.805 201.191 148.125 L 201.161 148.125 C 201.648 148.478 202.021 148.942 202.281 149.515 C 202.541 150.082 202.671 150.738 202.671 151.485 L 202.671 164.785 C 202.671 166.298 202.168 167.428 201.161 168.175 C 200.675 168.528 200.175 168.802 199.661 168.995 C 199.148 169.195 198.648 169.295 198.161 169.295 L 192.061 169.295 C 191.575 169.295 191.075 169.195 190.561 168.995 C 190.048 168.802 189.548 168.528 189.061 168.175 C 188.581 167.802 188.208 167.338 187.941 166.785 C 187.681 166.238 187.551 165.572 187.551 164.785 L 187.551 151.485 C 187.551 150.738 187.681 150.082 187.941 149.515 C 188.208 148.942 188.581 148.478 189.061 148.125 L 189.041 148.125 C 189.521 147.805 190.025 147.545 190.551 147.345 C 191.071 147.138 191.575 147.035 192.061 147.035 Z M 192.761 166.465 L 197.461 166.465 C 198.155 166.465 198.641 166.268 198.921 165.875 C 199.201 165.482 199.341 165.045 199.341 164.565 L 199.341 151.735 C 199.341 151.268 199.201 150.838 198.921 150.445 C 198.641 150.058 198.155 149.865 197.461 149.865 L 192.761 149.865 C 192.068 149.865 191.581 150.058 191.301 150.445 C 191.021 150.838 190.881 151.268 190.881 151.735 L 190.881 164.565 C 190.881 165.045 191.021 165.482 191.301 165.875 C 191.581 166.268 192.068 166.465 192.761 166.465 ZM 219.561 169.295 L 208.661 169.295 C 207.974 169.295 207.508 169.118 207.261 168.765 C 207.021 168.405 206.901 168.012 206.901 167.585 L 206.901 148.235 C 206.901 147.342 207.441 146.895 208.521 146.895 C 209.641 146.895 210.201 147.342 210.201 148.235 L 210.201 166.465 L 219.561 166.465 C 220.228 166.465 220.561 166.922 220.561 167.835 C 220.601 168.808 220.268 169.295 219.561 169.295 Z" transform="matrix(5.178149223327637, 0, 0, 5.412743091583252, -749.0142211914062, -678.4182739257812)" style="fill: rgb(255, 255, 255); white-space: pre;"/>
  <path d="M 171.506 148.235 L 171.506 168.085 C 171.506 168.985 170.946 169.435 169.826 169.435 C 168.726 169.435 168.176 168.985 168.176 168.085 L 168.176 148.235 C 168.176 147.342 168.726 146.895 169.826 146.895 C 170.946 146.895 171.506 147.342 171.506 148.235 ZM 188.39 163.385 L 188.39 148.235 C 188.39 147.342 188.943 146.895 190.05 146.895 C 191.15 146.895 191.7 147.342 191.7 148.235 L 191.7 167.555 C 191.7 168.208 191.353 168.685 190.66 168.985 L 190.69 168.985 C 190.39 169.118 190.073 169.222 189.74 169.295 C 189.4 169.368 189.073 169.405 188.76 169.405 C 188.513 169.405 188.26 169.382 188 169.335 C 187.74 169.288 187.493 169.215 187.26 169.115 C 187.027 169.008 186.813 168.868 186.62 168.695 C 186.42 168.515 186.263 168.295 186.15 168.035 L 180.08 152.885 L 179.32 152.965 L 179.32 168.085 C 179.32 168.985 178.76 169.435 177.64 169.435 C 176.54 169.435 175.99 168.985 175.99 168.085 L 175.99 148.795 C 175.99 148.028 176.327 147.515 177 147.255 C 177.613 147.015 178.267 146.895 178.96 146.895 C 179.447 146.895 179.937 146.992 180.43 147.185 C 180.923 147.385 181.3 147.755 181.56 148.295 L 187.61 163.465 L 188.39 163.385 ZM 199.2 149.865 L 199.2 168.085 C 199.2 168.985 198.65 169.435 197.55 169.435 C 196.45 169.435 195.9 168.985 195.9 168.085 L 195.9 148.715 C 195.9 148.282 196.02 147.895 196.26 147.555 C 196.506 147.208 196.973 147.035 197.66 147.035 L 207.18 147.035 C 207.853 147.035 208.21 147.502 208.25 148.435 C 208.283 149.388 207.926 149.865 207.18 149.865 L 199.2 149.865 Z M 206.37 157.705 C 206.37 158.018 206.31 158.322 206.19 158.615 C 206.07 158.902 205.9 159.148 205.68 159.355 C 205.466 159.562 205.22 159.725 204.94 159.845 C 204.66 159.965 204.353 160.025 204.02 160.025 C 203.386 160.025 202.843 159.802 202.39 159.355 C 201.943 158.908 201.72 158.358 201.72 157.705 C 201.72 157.052 201.943 156.498 202.39 156.045 C 202.843 155.598 203.386 155.375 204.02 155.375 C 204.353 155.375 204.66 155.435 204.94 155.555 C 205.22 155.682 205.466 155.852 205.68 156.065 C 205.9 156.278 206.07 156.525 206.19 156.805 C 206.31 157.085 206.37 157.385 206.37 157.705 ZM 215.777 147.035 L 221.877 147.035 C 222.364 147.035 222.871 147.138 223.397 147.345 C 223.917 147.545 224.421 147.805 224.907 148.125 L 224.877 148.125 C 225.364 148.478 225.737 148.942 225.997 149.515 C 226.257 150.082 226.387 150.738 226.387 151.485 L 226.387 164.785 C 226.387 166.298 225.884 167.428 224.877 168.175 C 224.391 168.528 223.891 168.802 223.377 168.995 C 222.864 169.195 222.364 169.295 221.877 169.295 L 215.777 169.295 C 215.291 169.295 214.791 169.195 214.277 168.995 C 213.764 168.802 213.264 168.528 212.777 168.175 C 212.297 167.802 211.924 167.338 211.657 166.785 C 211.397 166.238 211.267 165.572 211.267 164.785 L 211.267 151.485 C 211.267 150.738 211.397 150.082 211.657 149.515 C 211.924 148.942 212.297 148.478 212.777 148.125 L 212.757 148.125 C 213.237 147.805 213.741 147.545 214.267 147.345 C 214.787 147.138 215.291 147.035 215.777 147.035 Z M 216.477 166.465 L 221.177 166.465 C 221.871 166.465 222.357 166.268 222.637 165.875 C 222.917 165.482 223.057 165.045 223.057 164.565 L 223.057 151.735 C 223.057 151.268 222.917 150.838 222.637 150.445 C 222.357 150.058 221.871 149.865 221.177 149.865 L 216.477 149.865 C 215.784 149.865 215.297 150.058 215.017 150.445 C 214.737 150.838 214.597 151.268 214.597 151.735 L 214.597 164.565 C 214.597 165.045 214.737 165.482 215.017 165.875 C 215.297 166.268 215.784 166.465 216.477 166.465 Z" transform="matrix(4.651660919189453, 0, 0, 4.984543800354004, -660.3543701171875, -476.8553466796875)" style="fill: rgb(255, 255, 255); white-space: pre;"/>
  <path d="M 172.066 166.965 C 172.066 167.605 171.853 168.142 171.426 168.575 C 170.999 169.015 170.466 169.235 169.826 169.235 C 169.193 169.235 168.663 169.015 168.236 168.575 C 167.803 168.142 167.586 167.605 167.586 166.965 C 167.586 166.352 167.803 165.825 168.236 165.385 C 168.663 164.945 169.193 164.725 169.826 164.725 C 170.466 164.725 170.999 164.945 171.426 165.385 C 171.853 165.825 172.066 166.352 172.066 166.965 Z" transform="matrix(5.875566005706787, 0, 0, 5.596391201019287, -708.1146240234375, -625.253173828125)" style="fill: rgb(48, 57, 82); stroke: rgba(51, 61, 16, 0); white-space: pre;"/>
</svg>