<svg xmlns="http://www.w3.org/2000/svg" xmlns:xlink="http://www.w3.org/1999/xlink" id="eSpAJtGwFUu1" viewBox="0 0 500 500" shape-rendering="geometricPrecision" text-rendering="geometricPrecision"><defs><linearGradient id="eSpAJtGwFUu2-fill" x1="-0.103379" y1="0.238895" x2="1.103379" y2="0.761105" spreadMethod="pad" gradientUnits="objectBoundingBox" gradientTransform="translate(0 0)"><stop id="eSpAJtGwFUu2-fill-0" offset="0%" stop-color="#e40303"/><stop id="eSpAJtGwFUu2-fill-1" offset="20%" stop-color="#e40303"/><stop id="eSpAJtGwFUu2-fill-2" offset="20%" stop-color="#ff8c00"/><stop id="eSpAJtGwFUu2-fill-3" offset="35%" stop-color="#ffbd00"/><stop id="eSpAJtGwFUu2-fill-4" offset="35%" stop-color="#ffed00"/><stop id="eSpAJtGwFUu2-fill-5" offset="49%" stop-color="#ffed00"/><stop id="eSpAJtGwFUu2-fill-6" offset="49%" stop-color="#008026"/><stop id="eSpAJtGwFUu2-fill-7" offset="62%" stop-color="#008026"/><stop id="eSpAJtGwFUu2-fill-8" offset="62%" stop-color="#24408e"/><stop id="eSpAJtGwFUu2-fill-9" offset="77.5%" stop-color="#24408e"/><stop id="eSpAJtGwFUu2-fill-10" offset="77.5%" stop-color="#732982"/></linearGradient></defs><rect width="378" height="378" rx="25" ry="25" transform="matrix(.397147 0.917755-.917755 0.397147 348.83354 1.969231)" fill="url(#eSpAJtGwFUu2-fill)"/><path d="M173.276,156.465h5.4c.487,0,.99.103,1.51.31.527.207,1.033.477,1.52.81h-.03c.487.34.86.8,1.12,1.38.26.573.39,1.233.39,1.98v3.84c0,1.513-.503,2.643-1.51,3.39-.487.353-.987.627-1.5.82-.513.2-1.013.3-1.5.3h-6.1c-.487,0-.987-.1-1.5-.3-.513-.193-1.013-.467-1.5-.82-1.007-.747-1.51-1.877-1.51-3.39v-1.85c0-.873.55-1.31,1.65-1.31c1.12,0,1.68.437,1.68,1.31v1.63c0,.48.14.917.42,1.31s.767.59,1.46.59h4.7c.693,0,1.18-.197,1.46-.59s.42-.83.42-1.31v-3.39c0-.467-.14-.9-.42-1.3-.28-.407-.767-.61-1.46-.61h-5.4c-.973,0-1.973-.353-3-1.06-1.007-.787-1.51-1.917-1.51-3.39v-3.33c0-.747.13-1.403.39-1.97.26-.573.633-1.037,1.12-1.39h-.03c.487-.32.993-.58,1.52-.78.52-.207,1.023-.31,1.51-.31h6.1c.487,0,.99.103,1.51.31.527.2,1.033.46,1.52.78h-.03c.487.353.86.817,1.12,1.39.26.567.39,1.223.39,1.97v1.65c0,.88-.56,1.32-1.68,1.32-1.1,0-1.65-.44-1.65-1.32v-1.4c0-.467-.14-.897-.42-1.29-.28-.387-.767-.58-1.46-.58h-4.7c-.693,0-1.18.193-1.46.58-.28.393-.42.823-.42,1.29v2.86c0,.487.14.92.42,1.3s.767.57,1.46.57Zm18.785-9.43h6.1c.487,0,.994.103,1.52.31.52.2,1.024.46,1.51.78h-.03c.487.353.86.817,1.12,1.39.26.567.39,1.223.39,1.97v13.3c0,1.513-.503,2.643-1.51,3.39-.486.353-.986.627-1.5.82-.513.2-1.013.3-1.5.3h-6.1c-.486,0-.986-.1-1.5-.3-.513-.193-1.013-.467-1.5-.82-.48-.373-.853-.837-1.12-1.39-.26-.547-.39-1.213-.39-2v-13.3c0-.747.13-1.403.39-1.97.267-.573.64-1.037,1.12-1.39h-.02c.48-.32.984-.58,1.51-.78.52-.207,1.024-.31,1.51-.31Zm.7,19.43h4.7c.694,0,1.18-.197,1.46-.59s.42-.83.42-1.31v-12.83c0-.467-.14-.897-.42-1.29-.28-.387-.766-.58-1.46-.58h-4.7c-.693,0-1.18.193-1.46.58-.28.393-.42.823-.42,1.29v12.83c0,.48.14.917.42,1.31s.767.59,1.46.59Zm26.8,2.83h-10.9c-.687,0-1.153-.177-1.4-.53-.24-.36-.36-.753-.36-1.18v-19.35c0-.893.54-1.34,1.62-1.34c1.12,0,1.68.447,1.68,1.34v18.23h9.36c.667,0,1,.457,1,1.37.04.973-.293,1.46-1,1.46Z" transform="matrix(5.178149 0 0 5.412743-749.014221-678.418274)" fill="#24408e" stroke-width="1.5" stroke-linejoin="bevel"/><path d="M171.506,148.235v19.85c0,.9-.56,1.35-1.68,1.35-1.1,0-1.65-.45-1.65-1.35v-19.85c0-.893.55-1.34,1.65-1.34c1.12,0,1.68.447,1.68,1.34Zm16.884,15.15v-15.15c0-.893.553-1.34,1.66-1.34c1.1,0,1.65.447,1.65,1.34v19.32c0,.653-.347,1.13-1.04,1.43h.03c-.3.133-.617.237-.95.31-.34.073-.667.11-.98.11-.247,0-.5-.023-.76-.07s-.507-.12-.74-.22c-.233-.107-.447-.247-.64-.42-.2-.18-.357-.4-.47-.66l-6.07-15.15-.76.08v15.12c0,.9-.56,1.35-1.68,1.35-1.1,0-1.65-.45-1.65-1.35v-19.29c0-.767.337-1.28,1.01-1.54.613-.24,1.267-.36,1.96-.36.487,0,.977.097,1.47.29.493.2.87.57,1.13,1.11l6.05,15.17.78-.08Zm10.81-13.52v18.22c0,.9-.55,1.35-1.65,1.35s-1.65-.45-1.65-1.35v-19.37c0-.433.12-.82.36-1.16.246-.347.713-.52,1.4-.52h9.52c.673,0,1.03.467,1.07,1.4.033.953-.324,1.43-1.07,1.43h-7.98Zm7.17,7.84c0,.313-.06.617-.18.91-.12.287-.29.533-.51.74-.214.207-.46.37-.74.49s-.587.18-.92.18c-.634,0-1.177-.223-1.63-.67-.447-.447-.67-.997-.67-1.65s.223-1.207.67-1.66c.453-.447.996-.67,1.63-.67.333,0,.64.06.92.18.28.127.526.297.74.51.22.213.39.46.51.74s.18.58.18.9Zm9.407-10.67h6.1c.487,0,.994.103,1.52.31.52.2,1.024.46,1.51.78h-.03c.487.353.86.817,1.12,1.39.26.567.39,1.223.39,1.97v13.3c0,1.513-.503,2.643-1.51,3.39-.486.353-.986.627-1.5.82-.513.2-1.013.3-1.5.3h-6.1c-.486,0-.986-.1-1.5-.3-.513-.193-1.013-.467-1.5-.82-.48-.373-.853-.837-1.12-1.39-.26-.547-.39-1.213-.39-2v-13.3c0-.747.13-1.403.39-1.97.267-.573.64-1.037,1.12-1.39h-.02c.48-.32.984-.58,1.51-.78.52-.207,1.024-.31,1.51-.31Zm.7,19.43h4.7c.694,0,1.18-.197,1.46-.59s.42-.83.42-1.31v-12.83c0-.467-.14-.897-.42-1.29-.28-.387-.766-.58-1.46-.58h-4.7c-.693,0-1.18.193-1.46.58-.28.393-.42.823-.42,1.29v12.83c0,.48.14.917.42,1.31s.767.59,1.46.59Z" transform="matrix(4.651661 0 0 4.984544-660.35437-476.855347)" fill="#fff"/><path d="M172.066,166.965c0,.64-.213,1.177-.64,1.61-.427.44-.96.66-1.6.66-.633,0-1.163-.22-1.59-.66-.433-.433-.65-.97-.65-1.61c0-.613.217-1.14.65-1.58.427-.44.957-.66,1.59-.66.64,0,1.173.22,1.6.66s.64.967.64,1.58Z" transform="matrix(5.875566 0 0 5.596391-708.114624-625.253174)" fill="none" stroke="rgba(51,61,16,0)"/><path d="M 172.066 166.965 C 172.066 167.605 171.853 168.142 171.426 168.575 C 170.999 169.015 170.466 169.235 169.826 169.235 C 169.193 169.235 168.663 169.015 168.236 168.575 C 167.803 168.142 167.586 167.605 167.586 166.965 C 167.586 166.352 167.803 165.825 168.236 165.385 C 168.663 164.945 169.193 164.725 169.826 164.725 C 170.466 164.725 170.999 164.945 171.426 165.385 C 171.853 165.825 172.066 166.352 172.066 166.965 Z" transform="matrix(5.875566005706787, 0, 0, 5.596391201019287, -708.1146240234375, -625.253173828125)" style="fill: rgb(255, 255, 255); stroke: rgba(51, 61, 16, 0); white-space: pre;"/>
</svg>
